<?xml version="1.0" encoding="UTF-8"?>
<svg width="40px" height="40px" viewBox="0 0 40 40" version="1.1" xmlns="http://www.w3.org/2000/svg" xmlns:xlink="http://www.w3.org/1999/xlink">
    <!-- Generator: Sketch 48 (47235) - http://www.bohemiancoding.com/sketch -->
    <title>Group</title>
    <desc>Created with Sketch.</desc>
    <defs></defs>
    <g id="04---make-request---box-ticked---1008" stroke="none" stroke-width="1" fill="none" fill-rule="evenodd" transform="translate(-150.000000, -915.000000)">
        <g id="Group-3" transform="translate(138.000000, 903.000000)">
            <g id="Group-2">
                <g id="Group" transform="translate(12.000000, 12.000000)">
                    <path d="M0,20 C0,8.954305 8.95187636,0 20,0 L20,0 C31.045695,0 40,8.95187636 40,20 L40,20 C40,31.045695 31.0481236,40 20,40 L20,40 C8.954305,40 0,31.0481236 0,20 L0,20 Z" id="Button" fill="#FF9900" transform="translate(20.000000, 20.000000) scale(-1, 1) translate(-20.000000, -20.000000) "></path>
                    <g id="Warning" transform="translate(11.000000, 10.000000)" stroke="#FFFFFF" stroke-width="1.2">
                        <path d="M9,14 L9,2.552 L9,0.5 C11.624,0.5 13.183,0.93 15.311,2.606" id="Stroke-1"></path>
                        <path d="M2.5,10.5 C1.397,10.5 0.5,9.604 0.5,8.5 C0.5,7.396 1.397,6.5 2.5,6.5 C3.603,6.5 4.5,7.396 4.5,8.5 C4.5,9.604 3.603,10.5 2.5,10.5 Z" id="Stroke-3"></path>
                        <path d="M9,21.5 C7.897,21.5 7,20.603 7,19.5 C7,18.397 7.897,17.5 9,17.5 C10.103,17.5 11,18.397 11,19.5 C11,20.603 10.103,21.5 9,21.5 Z" id="Stroke-5"></path>
                        <path d="M15.5,10.5 C14.397,10.5 13.5,9.604 13.5,8.5 C13.5,7.396 14.397,6.5 15.5,6.5 C16.603,6.5 17.5,7.396 17.5,8.5 C17.5,9.604 16.603,10.5 15.5,10.5 Z" id="Stroke-7"></path>
                    </g>
                </g>
            </g>
        </g>
    </g>
</svg>